<?xml version="1.0" standalone="no"?>
<!DOCTYPE svg PUBLIC "-//W3C//DTD SVG 20010904//EN"
 "http://www.w3.org/TR/2001/REC-SVG-20010904/DTD/svg10.dtd">
<svg version="1.0" xmlns="http://www.w3.org/2000/svg"
 width="512.000000pt" height="512.000000pt" viewBox="0 0 512.000000 512.000000"
 preserveAspectRatio="xMidYMid meet">
<metadata>
Created by potrace 1.14, written by Peter Selinger 2001-2017
</metadata>
<g transform="translate(0.000000,512.000000) scale(0.100000,-0.100000)"
fill="#000000" stroke="none">
<path d="M0 2995 c0 -1169 2 -2125 4 -2125 2 0 14 16 26 35 25 40 30 42 61 16
l23 -19 -43 -108 c-38 -94 -66 -224 -49 -224 3 0 22 7 41 15 20 8 44 15 54 15
10 0 -11 -13 -46 -28 -35 -15 -66 -33 -69 -41 -3 -10 2 -11 19 -7 24 7 24 7 4
-9 -19 -15 -20 -30 -23 -265 -3 -283 -8 -270 77 -229 24 11 45 18 49 15 3 -3
1 -6 -4 -6 -6 0 -19 -7 -30 -15 -17 -13 118 -14 1134 -15 l1152 0 0 77 c0 93
17 89 35 -9 l11 -63 672 -3 c648 -2 672 -1 672 16 0 11 -13 81 -29 158 -42
200 -47 258 -26 333 10 34 16 64 13 66 -7 7 -119 -224 -169 -349 l-44 -109 -3
46 c-2 36 6 68 33 134 51 124 51 129 4 35 -22 -45 -45 -82 -50 -82 -9 0 -13
45 -9 105 1 30 84 249 102 271 5 7 11 22 13 34 8 42 21 48 82 38 31 -5 60 -11
66 -15 5 -3 6 -22 2 -42 -11 -59 -10 -99 4 -251 8 -80 13 -156 12 -170 0 -14
6 -60 14 -102 12 -58 13 -82 5 -98 -7 -13 -7 -20 0 -20 5 0 10 6 10 13 0 9 2
9 9 -1 7 -11 42 -13 172 -9 90 3 189 10 219 16 123 24 174 25 248 2 39 -11 80
-21 93 -21 22 0 22 0 4 14 -18 13 -18 14 10 10 28 -4 27 -3 -10 15 -63 31 -13
25 93 -10 52 -16 103 -29 115 -27 19 3 18 5 -11 35 -31 31 -60 41 -177 59 -39
6 -39 6 -16 19 l24 13 -22 7 c-13 4 -43 4 -67 0 -53 -8 -58 0 -9 14 85 23 245
-31 321 -109 31 -32 46 -40 75 -40 39 0 49 14 49 73 0 25 -8 32 -65 59 -52 24
-84 31 -153 35 -48 3 -93 9 -100 12 -7 4 28 13 78 20 53 7 93 18 96 25 13 34
-16 62 -115 114 -117 60 -148 64 -267 32 -77 -21 -95 -21 -72 -3 28 23 112 43
177 43 87 0 150 -19 236 -73 66 -41 70 -46 73 -83 3 -37 7 -41 59 -69 70 -37
94 -69 101 -134 l5 -51 73 0 74 0 0 2560 0 2560 -2560 0 -2560 0 0 -2125z
m1783 1940 c34 -9 147 -59 250 -110 103 -52 185 -90 182 -85 -3 6 -4 10 -1 10
19 0 180 -67 216 -90 67 -43 136 -118 161 -175 23 -52 39 -195 23 -195 -13 0
-116 108 -138 143 -16 26 -70 67 -89 67 -5 0 28 -34 72 -76 123 -117 183 -253
180 -410 -1 -38 -4 -58 -6 -45 -7 35 -70 126 -76 109 -3 -7 -6 -2 -6 12 -1 25
-46 130 -55 130 -3 0 1 -19 9 -41 19 -52 19 -65 2 -50 -8 6 -17 8 -20 4 -4 -3
-7 -1 -7 5 0 6 -7 9 -15 6 -8 -4 -15 -14 -15 -23 0 -9 -11 15 -24 52 -12 37
-28 73 -35 80 -10 9 -10 7 -3 -13 25 -68 18 -77 -12 -15 -47 98 -91 161 -192
269 -82 90 -92 97 -188 139 -143 63 -162 66 -76 9 41 -27 81 -56 89 -65 12
-15 10 -17 -25 -17 l-38 0 54 -54 c44 -46 49 -54 29 -50 -16 3 -11 -2 16 -17
41 -22 112 -79 99 -79 -4 0 -17 8 -28 18 -11 9 -5 -1 14 -23 41 -46 75 -100
85 -134 l7 -23 -32 18 c-18 11 -48 35 -68 54 -20 19 -29 26 -20 15 36 -44 70
-137 75 -204 4 -64 3 -65 -12 -39 -15 26 -82 78 -117 91 -15 5 -15 2 3 -39 10
-25 19 -51 18 -57 0 -7 -7 6 -17 28 -29 71 -110 204 -158 260 -64 74 -224 200
-224 176 0 -5 15 -15 33 -22 l32 -14 -70 -6 c-47 -3 -75 -1 -85 7 -12 9 -24 9
-55 -1 l-40 -12 38 -8 c20 -4 40 -11 43 -16 3 -5 14 -9 25 -9 38 0 79 -29 79
-55 0 -32 -16 -32 -71 0 -50 28 -102 34 -93 10 4 -8 16 -15 28 -16 20 0 20 -1
1 -9 -16 -7 -12 -9 20 -9 66 0 132 -18 207 -58 68 -35 158 -113 158 -136 0 -6
-15 4 -34 22 -32 31 -66 37 -66 12 0 -5 -35 1 -77 14 -43 12 -96 25 -118 28
l-40 6 40 -14 c22 -7 73 -23 112 -36 40 -12 81 -28 90 -36 10 -8 13 -12 6 -9
-6 4 -18 0 -25 -8 -11 -12 -22 -9 -78 19 -142 73 -163 78 -310 78 -74 -1 -146
-5 -160 -11 -23 -8 -21 -10 20 -16 73 -11 120 -44 157 -109 30 -53 31 -62 10
-58 -5 1 -6 -3 -2 -9 11 -17 -11 -11 -92 24 -43 19 -91 37 -108 40 -25 5 -23
4 8 -9 21 -8 60 -26 86 -41 38 -20 48 -30 44 -45 -8 -29 -14 -30 -82 -9 -35
10 -89 21 -120 24 -42 4 -49 3 -26 -4 52 -15 104 -36 112 -44 7 -7 -19 -2 -53
11 -14 5 -66 -36 -59 -48 4 -5 -4 -9 -17 -9 -32 0 -264 -49 -315 -67 -23 -8
-56 -30 -72 -49 -37 -42 -46 -43 -26 -4 21 40 80 82 152 108 32 12 68 31 80
42 12 11 28 20 35 20 7 0 20 5 28 11 19 13 -227 3 -284 -12 -21 -6 -40 -9 -42
-7 -2 2 48 27 110 55 121 55 227 82 328 84 l63 1 -95 25 c-52 13 -135 27 -185
31 l-90 8 38 19 c20 10 37 22 37 25 0 4 -24 19 -53 33 -29 15 -70 42 -91 60
-22 17 -74 55 -117 82 -126 81 -254 169 -257 177 -2 5 -8 8 -12 8 -10 0 -209
127 -225 143 -25 26 148 -78 330 -198 110 -72 237 -156 283 -185 45 -30 82
-58 82 -62 0 -4 18 -17 40 -28 35 -18 46 -19 81 -10 22 6 92 13 155 15 111 5
118 6 154 35 21 16 48 34 60 38 21 8 19 11 -31 39 -30 17 -74 52 -99 77 l-44
46 54 -1 c30 0 64 -4 74 -8 27 -11 225 23 319 53 43 14 85 26 94 26 9 0 0 12
-23 28 -38 28 -114 113 -146 162 -8 14 -36 49 -62 77 l-47 53 53 -24 c60 -27
156 -50 272 -65 44 -6 120 -25 169 -42 49 -17 91 -29 93 -27 2 2 -19 31 -46
65 -83 103 -198 166 -335 184 -55 7 -53 8 18 4 43 -3 106 -12 140 -20z m1020
-16 c32 -17 136 -105 185 -158 59 -63 126 -166 146 -224 18 -54 21 -142 6
-184 -10 -27 -9 -27 6 -8 61 76 89 214 65 325 -6 29 -10 55 -8 57 3 2 21 -36
42 -84 32 -73 39 -102 43 -173 4 -80 -1 -109 -33 -182 -6 -15 -3 -16 27 -8 49
15 149 12 236 -5 116 -24 228 -81 301 -154 72 -72 80 -95 16 -46 -56 42 -129
65 -207 65 -60 0 -148 -17 -148 -29 0 -3 16 -17 35 -30 20 -13 49 -39 64 -57
22 -24 51 -40 108 -59 99 -34 174 -80 239 -147 65 -66 84 -105 90 -177 l5 -56
-14 37 c-8 21 -22 49 -30 62 -21 31 -91 88 -142 114 -22 12 -34 21 -27 22 59
2 -79 67 -191 90 -60 12 -230 -11 -332 -45 -17 -6 -16 -3 5 15 16 14 19 20 8
16 -42 -13 -97 -25 -147 -31 -46 -5 -53 -4 -43 8 33 40 157 86 290 107 l57 9
-62 -4 c-47 -4 -62 -1 -67 10 -3 8 -16 16 -28 16 -19 1 -18 3 7 9 l30 8 -30 1
c-57 3 -59 17 -6 39 64 28 66 28 162 -9 44 -17 82 -29 85 -26 6 6 -121 57
-144 57 -15 0 -15 2 -2 11 11 8 5 9 -25 5 -54 -7 -318 -139 -368 -185 l-41
-36 22 36 c28 46 28 51 -3 39 -35 -13 -31 -6 17 29 47 35 41 42 -11 10 -18
-11 -36 -18 -38 -15 -3 3 -14 1 -25 -5 -16 -9 -20 -7 -25 10 -7 26 -7 26 -51
-5 -33 -23 -32 -22 8 16 26 24 88 61 148 90 110 51 128 62 94 55 -14 -2 -19 1
-16 9 3 8 -4 16 -17 19 -16 4 -20 11 -16 26 7 29 2 26 -22 -13 -27 -43 -111
-134 -111 -120 0 5 20 39 45 74 84 119 110 261 67 365 -12 28 -21 42 -21 33
-1 -11 -6 -15 -15 -12 -8 3 -17 0 -21 -6 -6 -9 -10 -9 -16 1 -5 8 -6 -24 -2
-72 6 -85 -9 -189 -28 -189 -4 0 -13 -19 -19 -42 -22 -86 -31 -107 -44 -102
-9 4 -12 27 -9 87 3 80 0 88 -11 37 -3 -17 -12 -26 -25 -26 -15 0 -22 13 -35
65 -21 85 -58 146 -96 159 -16 6 -30 8 -30 4 0 -4 -5 1 -11 11 -6 9 -15 14
-21 11 -6 -4 -8 -2 -4 4 3 6 2 14 -4 17 -6 4 -27 39 -46 78 -20 40 -51 91 -70
113 -18 23 -30 45 -26 49 4 5 2 5 -5 1 -6 -3 -21 6 -33 24 -23 32 -118 89
-190 115 -25 9 -79 20 -120 25 l-75 9 85 -4 c71 -2 106 -11 215 -50 176 -64
248 -102 342 -180 135 -112 221 -247 224 -354 1 -30 3 -27 10 19 5 30 6 107 3
170 -10 185 -57 328 -131 398 -36 34 -36 39 0 21z m-755 -318 c37 -19 173
-151 156 -151 -11 0 -160 112 -194 145 -29 30 -13 32 38 6z m-1442 -162 c3 -6
-5 -3 -20 6 -14 10 -26 19 -26 22 0 7 39 -17 46 -28z m1631 -171 c24 -33 35
-61 37 -90 3 -42 2 -40 -38 44 -22 47 -50 97 -61 110 l-20 23 23 -20 c13 -11
39 -41 59 -67z m463 62 c0 -5 -5 -10 -11 -10 -5 0 -7 5 -4 10 3 6 8 10 11 10
2 0 4 -4 4 -10z m-2600 -71 l25 -20 -32 16 c-18 8 -33 18 -33 20 0 10 16 4 40
-16z m1710 -194 c45 -23 120 -83 120 -97 0 -5 -16 4 -35 21 -34 29 -105 71
-122 71 -4 0 -9 -28 -11 -62 -2 -35 -5 -65 -8 -67 -2 -2 -28 5 -59 16 -30 12
-55 19 -55 16 0 -2 37 -22 83 -43 45 -22 71 -37 57 -34 l-25 5 25 -21 c20 -16
21 -19 5 -13 -11 4 -32 15 -47 26 -15 11 -34 17 -42 14 -35 -14 -106 79 -106
137 0 14 -5 26 -11 26 -8 0 -10 -21 -5 -70 l7 -70 -25 0 c-20 0 -26 -5 -27
-22 0 -13 -7 -1 -16 27 -18 59 -31 70 -56 48 -16 -15 -16 -18 -2 -25 8 -5 15
-18 15 -30 0 -20 -1 -20 -27 -3 l-28 18 23 -25 c22 -24 23 -29 15 -134 -4 -60
-9 -98 -11 -84 -4 27 -19 50 -33 50 -5 0 -6 -6 -3 -14 3 -9 -1 -13 -13 -13
-10 1 -21 13 -24 27 -5 18 -7 12 -8 -22 -1 -37 3 -48 14 -48 18 0 65 -43 65
-60 0 -19 -18 -10 -51 25 -18 18 -36 32 -41 29 -4 -3 -8 41 -8 97 0 91 3 106
27 150 14 27 31 49 38 49 6 0 31 21 55 46 74 76 99 85 215 81 71 -3 110 -9
135 -22z m-1323 -67 c-3 -8 -6 -5 -6 6 -1 11 2 17 5 13 3 -3 4 -12 1 -19z
m1366 -24 c-2 -21 -10 -44 -19 -51 -10 -7 -11 -13 -5 -18 6 -3 11 -10 11 -16
0 -5 -9 -4 -21 3 -16 10 -19 20 -16 43 14 84 54 116 50 39z m1097 2 c0 -2 -8
-10 -17 -17 -16 -13 -17 -12 -4 4 13 16 21 21 21 13z m-40 -29 c0 -2 -10 -12
-22 -23 l-23 -19 19 23 c18 21 26 27 26 19z m-944 -49 c8 -16 13 -32 10 -36
-3 -3 -6 0 -6 6 0 6 -9 13 -20 17 -13 4 -19 14 -18 30 3 29 13 24 34 -17z
m-1636 -8 c12 -8 12 -10 -5 -10 -11 0 -27 5 -35 10 -12 8 -12 10 5 10 11 0 27
-5 35 -10z m-70 -30 c0 -5 -2 -10 -4 -10 -3 0 -8 5 -11 10 -3 6 -1 10 4 10 6
0 11 -4 11 -10z m901 -5 c26 -3 55 -12 65 -20 17 -14 16 -14 -21 -9 -51 7
-166 -23 -280 -72 -98 -42 -125 -64 -33 -27 42 17 87 26 142 29 80 4 80 4 41
-10 -22 -8 -73 -22 -113 -31 -70 -16 -180 -60 -229 -92 -22 -15 -23 -17 -7
-34 10 -11 12 -19 7 -19 -6 0 -16 7 -23 16 -12 13 -17 11 -47 -23 -19 -21 -49
-66 -66 -101 -17 -35 -33 -58 -35 -52 -2 6 19 57 46 113 89 181 220 308 332
322 25 3 65 9 90 14 25 4 54 6 65 5 11 -2 41 -6 66 -9z m2584 -33 c39 -17 62
-32 52 -32 -15 0 -17 -6 -13 -27 3 -16 8 -54 12 -86 6 -57 7 -58 53 -81 25
-13 56 -35 67 -48 27 -29 85 -120 80 -125 -2 -2 -41 21 -87 53 l-83 56 -12
-68 c-6 -38 -23 -98 -37 -133 -24 -59 -24 -63 -6 -58 11 3 17 1 13 -5 -6 -10
96 -4 138 8 20 6 32 -27 24 -69 -7 -38 11 -34 50 11 18 20 33 34 34 31 0 -12
-62 -84 -71 -81 -5 1 -9 -2 -9 -8 0 -20 27 -9 59 25 18 19 37 35 42 35 6 0 7
5 4 10 -7 12 12 40 27 40 6 0 8 -7 4 -15 -4 -12 0 -14 19 -9 14 3 25 2 25 -4
0 -5 -29 -41 -65 -80 -36 -38 -65 -77 -65 -85 0 -19 16 -31 24 -18 12 19 106
93 106 83 0 -6 -24 -29 -52 -52 -61 -48 -82 -76 -50 -66 18 6 21 2 24 -35 l3
-41 28 22 c30 24 36 17 10 -12 -14 -15 -15 -21 -4 -27 15 -10 8 -15 -30 -24
-32 -8 -63 -52 -53 -75 4 -9 6 -21 6 -27 -1 -5 11 6 28 25 16 19 30 28 30 20
0 -19 -58 -108 -84 -127 -14 -10 -16 -14 -4 -10 11 4 15 2 12 -7 -3 -7 4 -21
16 -31 11 -10 20 -28 20 -41 0 -24 31 -49 45 -36 5 4 6 0 3 -8 -3 -9 7 -33 23
-55 16 -21 29 -47 29 -57 0 -10 5 -18 11 -18 8 0 8 -4 -1 -15 -6 -8 -9 -18 -6
-23 3 -5 1 -23 -3 -40 -6 -20 -5 -34 2 -42 9 -10 7 -11 -10 -6 -16 5 -25 2
-32 -13 -8 -13 -8 -22 -1 -26 6 -4 8 -10 5 -15 -3 -4 2 -10 10 -14 8 -3 12
-12 9 -21 -4 -9 -1 -15 9 -15 26 0 29 -32 5 -59 -13 -14 -19 -23 -14 -19 5 4
15 3 22 -3 11 -9 10 -18 -3 -52 -9 -23 -25 -48 -35 -55 -10 -7 -18 -20 -18
-28 0 -8 -5 -14 -11 -14 -6 0 -8 7 -5 16 3 8 2 12 -4 9 -6 -3 -10 -14 -10 -23
-1 -15 -2 -15 -13 -2 -7 8 -23 16 -35 16 -20 1 -23 -2 -17 -20 23 -80 35 -207
26 -296 -4 -52 -9 -77 -10 -54 -4 128 -45 234 -119 309 -64 65 -249 188 -381
254 -57 29 -101 54 -98 57 2 3 21 -4 42 -16 21 -12 40 -19 43 -16 10 11 -29
56 -48 56 -11 0 -20 5 -20 10 0 6 5 10 10 10 6 0 10 4 10 10 0 5 -30 11 -67
13 l-68 3 83 2 c52 1 82 -2 82 -9 0 -16 60 -37 126 -42 34 -3 80 -15 103 -27
24 -12 45 -19 48 -16 3 2 -31 23 -75 45 -78 39 -118 75 -148 132 -17 34 -10
36 31 8 28 -19 95 -52 175 -86 l35 -15 -30 32 c-16 18 -61 46 -98 64 -62 28
-67 33 -55 49 13 17 15 17 61 -2 46 -20 198 -61 221 -61 6 1 -28 13 -75 29
-48 15 -95 34 -105 42 -20 14 -23 54 -9 96 7 21 8 21 34 6 15 -9 7 2 -19 27
-35 33 -39 38 -15 25 l30 -18 -24 26 c-12 14 -20 30 -17 36 8 13 -9 46 -40 80
-22 24 -32 51 -18 51 3 0 22 -12 42 -27 20 -16 32 -22 28 -14 -7 10 -4 12 12
7 42 -14 31 14 -16 41 -45 26 -48 30 -40 53 5 14 19 35 30 47 17 18 22 36 22
89 l1 66 -77 30 c-51 20 -75 35 -71 43 2 8 -5 19 -17 25 -20 11 -19 13 26 42
25 18 60 50 76 72 17 23 34 40 40 38 5 -1 7 2 3 7 -3 6 1 24 10 41 9 17 21 58
28 93 11 57 16 63 50 80 28 14 37 25 37 44 l0 25 -44 -26 -44 -25 -6 40 c-7
47 -1 58 49 85 19 10 35 26 35 36 0 24 -15 31 -30 13 -7 -8 -27 -24 -46 -36
-33 -20 -34 -20 -58 -2 l-23 19 28 34 c43 51 35 58 -15 12 -24 -22 -54 -45
-66 -52 -23 -12 -23 -13 26 -57 27 -25 40 -42 29 -38 -57 20 -89 25 -223 40
-117 13 -150 20 -162 34 -8 10 -24 22 -35 26 -17 6 -13 10 25 22 90 27 149 27
230 0 l75 -26 17 22 c22 28 53 96 46 102 -4 5 -101 -10 -143 -22 -35 -9 -3 15
40 32 64 24 166 15 250 -23z m-3135 -112 c36 -33 61 -60 55 -59 -5 0 -39 27
-75 59 -35 33 -60 60 -55 60 6 -1 39 -28 75 -60z m1778 -6 c107 -22 179 -63
260 -148 l68 -72 11 70 c14 88 42 119 96 106 119 -26 334 -214 436 -380 l52
-85 -113 -6 c-75 -5 -130 -13 -165 -27 -47 -18 -56 -18 -104 -6 -42 11 -55 11
-61 1 -6 -9 -8 -9 -8 1 0 9 -12 13 -39 11 -30 -2 -46 3 -71 24 -85 72 -187
109 -359 132 -166 22 -302 20 -332 -4 -13 -10 -44 -22 -69 -26 -25 -4 -74 -18
-109 -31 -68 -26 -84 -25 -59 3 28 32 99 177 93 191 -2 7 -1 11 4 8 4 -3 18 9
31 26 12 17 16 27 9 23 -35 -20 72 81 122 115 75 52 139 77 222 89 4 1 43 -6
85 -15z m-1272 -31 c-4 -5 -22 -13 -39 -20 -27 -9 -28 -12 -9 -12 20 -1 27
-11 23 -33 0 -5 22 -8 49 -8 28 0 50 -4 50 -10 0 -5 -9 -10 -21 -10 -14 0 -19
-5 -17 -17 3 -14 -20 -29 -95 -67 -54 -26 -96 -50 -94 -53 3 -2 41 14 85 36
85 43 190 81 219 80 22 -1 12 -6 -104 -49 -86 -33 -315 -170 -372 -223 -43
-41 -123 -148 -116 -156 3 -3 24 16 47 42 22 26 45 46 52 44 6 -2 36 14 67 35
31 21 74 45 95 54 49 21 236 75 241 71 2 -2 -24 -16 -57 -31 -33 -15 -60 -29
-60 -31 0 -7 73 21 121 45 37 19 42 20 29 5 -14 -17 -13 -18 25 -12 l40 6 -30
-14 c-16 -8 -72 -28 -123 -46 -94 -31 -121 -50 -42 -29 24 6 70 13 104 15 l61
4 -45 -25 c-34 -19 -38 -24 -17 -19 15 3 27 3 27 1 0 -2 -24 -18 -52 -34 -85
-49 -99 -66 -23 -29 53 26 88 36 142 40 40 3 87 12 104 21 33 17 64 22 41 8
-16 -11 34 -35 51 -26 8 5 9 4 2 -4 -5 -5 -75 -35 -155 -66 -172 -66 -252
-106 -300 -146 -28 -24 -20 -21 40 14 75 45 301 123 321 110 6 -3 40 12 77 35
80 48 156 81 197 86 l30 4 -35 -30 c-19 -16 -102 -63 -185 -104 -135 -66 -199
-91 -360 -141 -27 -9 -91 -35 -142 -59 -50 -25 -113 -50 -140 -56 -26 -7 -80
-27 -120 -46 -77 -38 -169 -125 -259 -248 -26 -36 -50 -63 -52 -60 -3 2 2 15
10 27 8 13 29 61 48 107 61 152 202 346 281 386 66 34 70 32 22 -17 -22 -24
-46 -54 -53 -66 -11 -22 -10 -23 6 -14 13 7 25 7 38 0 16 -9 32 3 110 80 50
49 118 108 150 131 64 44 67 52 8 22 -62 -31 -150 -52 -187 -45 l-35 6 30 28
c17 15 30 31 30 34 0 8 -79 -48 -125 -89 l-40 -35 30 5 c27 5 28 5 7 -5 -13
-5 -28 -8 -32 -5 -5 3 -45 -29 -89 -71 -45 -42 -81 -72 -81 -67 0 5 5 14 10
21 7 9 7 9 -2 2 -6 -5 -24 -31 -40 -57 -17 -28 -26 -37 -22 -23 3 14 26 54 49
90 23 36 54 88 68 115 48 97 144 205 274 312 10 8 11 11 3 7 -8 -4 -36 -25
-61 -46 -26 -21 -82 -52 -125 -70 -44 -17 -92 -39 -109 -48 -40 -21 -91 -99
-111 -167 -19 -66 -25 -65 -14 2 15 94 66 206 121 268 77 87 284 249 379 298
62 31 198 64 176 42z m2394 -73 c-8 -5 -22 -9 -30 -9 -10 0 -8 3 5 9 27 12 43
12 25 0z m601 -32 c-48 -68 -71 -94 -71 -82 0 6 7 17 16 25 9 7 29 32 45 56
17 24 32 43 35 43 3 0 -9 -19 -25 -42z m-2203 -23 c20 -14 33 -25 29 -25 -5 0
-25 11 -45 25 -20 14 -33 25 -29 25 5 0 25 -11 45 -25z m2522 5 c-6 -11 -13
-20 -16 -20 -2 0 0 9 6 20 6 11 13 20 16 20 2 0 0 -9 -6 -20z m-1079 -50 c14
0 43 -7 65 -15 l39 -15 -35 6 c-19 3 -46 8 -60 11 l-25 6 21 -24 c31 -35 61
-90 68 -124 5 -27 4 -26 -15 10 -34 62 -56 87 -112 123 l-52 34 40 -6 c22 -4
52 -6 66 -6z m-35 -46 c19 -15 19 -16 -1 -9 -11 4 -45 11 -75 15 l-55 7 56 2
c37 1 62 -4 75 -15z m-1466 -94 c-11 -22 -23 -40 -25 -40 -3 0 4 18 15 40 11
22 23 40 25 40 3 0 -4 -18 -15 -40z m-911 -24 c-18 -16 -90 -55 -84 -46 8 14
66 50 79 50 5 0 7 -2 5 -4z m2893 -18 c-7 -7 -12 -8 -12 -2 0 6 3 14 7 17 3 4
9 5 12 2 2 -3 -1 -11 -7 -17z m-1642 -18 c0 -5 -15 -10 -32 -10 -25 0 -29 3
-18 10 20 13 50 13 50 0z m143 3 c-7 -2 -21 -2 -30 0 -10 3 -4 5 12 5 17 0 24
-2 18 -5z m70 0 c-7 -2 -19 -2 -25 0 -7 3 -2 5 12 5 14 0 19 -2 13 -5z m60
-10 c-7 -2 -19 -2 -25 0 -7 3 -2 5 12 5 14 0 19 -2 13 -5z m961 -68 c40 -41
69 -75 65 -75 -4 0 -14 6 -21 13 -35 32 -61 51 -54 40 11 -20 -19 -16 -36 5
-35 39 -52 92 -31 92 2 0 37 -34 77 -75z m-2594 42 c0 -2 -12 -14 -27 -28
l-28 -24 24 28 c23 25 31 32 31 24z m1674 -32 c124 -33 176 -83 176 -172 0
-52 -24 -148 -40 -158 -4 -3 -23 8 -42 25 -18 17 -56 44 -85 60 -28 16 -54 34
-57 39 -4 5 -37 17 -75 27 l-69 18 -16 52 c-9 28 -27 68 -41 88 -14 20 -25 40
-25 43 0 11 214 -6 274 -22z m-760 -11 c3 -8 2 -12 -4 -9 -6 3 -10 10 -10 16
0 14 7 11 14 -7z m274 9 c-10 -2 -28 -2 -40 0 -13 2 -5 4 17 4 22 1 32 -1 23
-4z m-1388 -23 c0 -5 -4 -10 -10 -10 -5 0 -10 5 -10 10 0 6 5 10 10 10 6 0 10
-4 10 -10z m2490 -45 c0 -8 -52 -26 -58 -20 -3 2 6 9 19 14 28 11 39 13 39 6z
m-1550 -23 c-14 -9 -39 -30 -57 -47 -18 -16 -70 -54 -117 -84 -47 -29 -83 -57
-81 -62 5 -7 -46 -37 -248 -142 l-87 -46 94 94 c118 117 165 148 341 226 77
33 144 65 150 70 5 5 14 9 20 8 5 0 -1 -8 -15 -17z m1857 -45 c51 -17 74 -31
97 -60 28 -35 31 -46 31 -110 0 -77 -12 -138 -23 -120 -11 16 -169 89 -250
114 -71 23 -75 25 -99 74 -14 27 -34 63 -45 78 -11 16 -18 31 -15 34 30 29
206 23 304 -10z m-1502 -22 c17 -16 25 -35 25 -58 0 -50 36 -184 61 -226 12
-20 38 -53 58 -75 l36 -38 -42 21 c-62 31 -108 75 -158 152 -51 79 -95 111
-201 149 l-75 26 108 37 c130 43 156 45 188 12z m2312 -33 c-19 -20 -23 -37
-7 -27 14 9 12 -18 -3 -46 -20 -38 -41 -69 -47 -69 -7 0 -4 51 5 80 7 23 52
80 63 80 3 0 -2 -8 -11 -18z m-1359 2 c19 -5 22 -13 21 -53 0 -35 -2 -41 -9
-26 -8 19 -9 19 -9 -2 -1 -20 -4 -21 -28 -12 -16 6 -45 8 -65 5 l-37 -6 11 32
c18 58 56 78 116 62z m743 -12 c-13 -2 -27 0 -32 5 -6 6 3 7 23 4 28 -4 29 -6
9 -9z m810 -20 c-8 -15 -85 -85 -143 -131 -34 -26 -20 13 22 67 22 28 40 54
39 59 -3 20 4 23 46 23 41 0 45 -2 36 -18z m-3081 -52 c-8 -5 -19 -10 -25 -10
-5 0 -3 5 5 10 8 5 20 10 25 10 6 0 3 -5 -5 -10z m-240 -35 c0 -2 -13 -11 -29
-20 -35 -18 -87 -64 -83 -73 5 -14 -30 -43 -44 -38 -8 3 -12 2 -9 -3 3 -6 -15
-24 -40 -41 -56 -39 -58 -47 -4 -20 23 12 43 19 46 16 3 -2 -19 -17 -49 -32
-164 -83 -291 -212 -368 -376 -17 -35 -33 -85 -36 -112 -5 -37 -9 -45 -16 -32
-13 22 -1 103 27 196 13 41 26 98 29 125 7 56 37 143 68 192 20 34 75 79 85
70 3 -3 -18 -44 -46 -91 -53 -87 -106 -194 -99 -201 2 -2 24 27 50 64 118 172
167 214 370 320 105 54 148 71 148 56z m1743 -17 c49 -15 60 -27 195 -209 93
-125 108 -151 104 -177 -4 -28 -6 -29 -27 -18 -17 9 -39 10 -83 2 -56 -9 -65
-7 -121 18 -87 39 -120 42 -168 18 l-40 -21 -36 25 c-56 37 -67 32 -46 -23 17
-44 49 -73 116 -104 98 -44 148 -137 123 -227 -8 -33 -19 -47 -55 -68 -82 -48
-145 -66 -233 -67 -88 -2 -99 3 -131 61 -7 12 -24 7 -102 -31 -52 -26 -85 -40
-74 -31 11 9 52 32 90 51 72 37 76 52 9 34 -21 -6 -40 -8 -42 -6 -3 2 16 10
41 17 43 11 46 14 40 37 -3 14 -6 31 -6 38 0 14 -26 10 -102 -18 -42 -15 -47
-16 -30 -2 19 15 19 15 -5 9 -68 -17 -76 -18 -57 -6 10 6 37 13 61 14 23 2 59
9 79 15 l37 13 -20 28 c-11 15 -17 35 -14 44 8 22 -14 21 -110 -4 -43 -12 -80
-19 -82 -17 -3 2 26 12 63 22 38 10 79 24 93 32 26 15 19 14 -110 -3 -29 -4
-31 -3 -13 5 12 6 49 13 82 17 63 7 71 13 46 34 -10 8 -34 10 -72 7 l-58 -6
50 14 c28 7 60 14 73 14 13 1 20 6 17 11 -3 6 -34 10 -68 11 l-62 1 69 12 c39
7 73 19 80 28 6 9 25 35 42 59 21 31 56 58 113 91 44 26 81 42 81 37 0 -5 9
-4 20 3 11 7 20 19 20 27 0 11 -3 11 -17 0 -10 -8 -4 2 13 22 17 20 46 63 64
95 18 32 38 65 43 72 12 15 68 16 120 0z m-1311 -19 c-2 -7 -19 -35 -39 -61
-31 -43 -34 -62 -7 -40 5 4 -2 -5 -16 -20 -14 -15 -63 -50 -110 -78 -80 -48
-85 -50 -94 -31 -7 16 -15 19 -40 15 -29 -5 -30 -4 -11 10 59 44 62 48 25 30
-33 -16 -50 -27 -137 -91 -30 -23 -36 -25 -30 -9 11 27 -10 46 -52 46 l-36 1
45 23 c89 46 241 107 258 103 15 -3 15 -5 -3 -11 -50 -19 -67 -27 -63 -31 6
-7 78 15 78 24 0 4 17 15 38 25 46 21 162 98 162 108 0 3 8 5 18 3 9 -1 16 -9
14 -16z m-182 -74 c0 -2 -10 -9 -22 -15 -22 -11 -22 -10 -4 4 21 17 26 19 26
11z m-220 -29 c0 -2 -24 -19 -52 -38 -93 -62 -146 -117 -204 -211 -115 -186
-161 -320 -171 -505 -7 -137 -12 -134 -32 18 l-13 96 57 169 c66 199 110 279
197 361 50 46 80 65 138 86 88 31 80 29 80 24z m314 -120 c-2 -7 -39 -27 -81
-45 -56 -24 -78 -30 -87 -21 -8 8 -6 9 8 4 13 -5 17 -4 12 4 -4 7 -2 10 6 7 8
-3 22 1 33 9 15 12 16 16 5 16 -8 0 0 7 19 15 42 19 54 19 21 0 -30 -17 -21
-20 14 -4 14 7 24 15 21 18 -2 4 5 7 15 8 11 1 17 -3 14 -11z m101 -23 c-17
-72 -116 -182 -199 -225 -39 -20 -128 -48 -153 -48 -8 0 -13 14 -13 39 0 22
-5 41 -12 43 -19 7 40 42 165 98 65 29 137 68 160 86 52 41 61 42 52 7z m-140
-32 c-6 -6 -48 -29 -95 -52 -175 -86 -242 -133 -365 -255 -119 -118 -161 -190
-175 -304 l-9 -65 3 80 c6 184 97 300 356 455 88 53 274 149 290 150 2 0 0 -4
-5 -9z m-461 -23 c-4 -7 -21 -32 -37 -56 -16 -24 -39 -73 -52 -110 -13 -37
-24 -59 -24 -50 -2 46 85 228 110 228 5 0 7 -6 3 -12z m306 -7 c0 -5 -6 -11
-12 -14 -7 -3 -31 -13 -53 -22 -46 -20 -42 -12 12 21 41 25 53 29 53 15z m365
-119 c-7 -28 -262 -292 -282 -292 -7 0 -17 8 -20 18 -4 9 -13 23 -20 30 -7 7
-13 20 -13 28 0 8 -4 14 -8 14 -5 0 -8 9 -7 20 1 13 43 48 137 110 129 85 206
154 210 189 1 9 3 -9 5 -38 2 -30 1 -66 -2 -79z m62 6 c-2 -29 -15 -63 -31
-88 -15 -22 -24 -45 -21 -50 3 -6 2 -10 -3 -10 -12 0 -171 -87 -198 -109 -11
-9 -4 -1 15 18 20 19 30 31 24 27 -32 -18 -6 15 81 104 56 57 97 107 100 123
3 15 9 39 12 55 l6 27 10 -25 c5 -14 8 -46 5 -72z m-134 49 c-24 -30 -88 -87
-99 -87 -5 0 16 25 46 55 55 55 87 75 53 32z m1689 -77 c18 -44 38 -151 31
-163 -4 -7 -9 -28 -10 -49 -3 -45 -37 -136 -66 -178 -12 -17 -38 -41 -57 -52
l-35 -20 33 27 c30 25 62 73 62 92 0 4 -7 0 -14 -9 -22 -30 -103 -60 -139 -53
-40 8 -105 49 -134 84 -62 73 18 199 160 252 68 25 87 53 87 126 l1 48 35 -40
c20 -22 41 -51 46 -65z m-1062 13 c-14 -2 -101 -20 -193 -39 -93 -20 -170 -34
-173 -31 -2 2 64 19 148 36 84 18 158 34 163 36 6 2 26 3 45 3 25 -1 28 -2 10
-5z m748 -58 c-23 -47 -45 -62 -32 -22 16 53 24 67 39 67 12 0 11 -8 -7 -45z
m-795 -2 c-7 -2 -19 -2 -25 0 -7 3 -2 5 12 5 14 0 19 -2 13 -5z m-46 -9 c-3
-3 -12 -4 -19 -1 -8 3 -5 6 6 6 11 1 17 -2 13 -5z m883 -14 c-6 -11 -12 -20
-14 -20 -2 0 -2 9 1 20 3 11 9 20 15 20 5 0 4 -9 -2 -20z m-1206 -5 c-17 -8
-44 -17 -60 -20 -19 -4 -14 1 16 14 25 10 52 19 60 19 8 0 1 -6 -16 -13z m283
9 c-3 -3 -12 -4 -19 -1 -8 3 -5 6 6 6 11 1 17 -2 13 -5z m-40 -10 c-3 -3 -12
-4 -19 -1 -8 3 -5 6 6 6 11 1 17 -2 13 -5z m160 -20 c-3 -3 -12 -4 -19 -1 -8
3 -5 6 6 6 11 1 17 -2 13 -5z m-40 -10 c-3 -3 -12 -4 -19 -1 -8 3 -5 6 6 6 11
1 17 -2 13 -5z m-257 -14 c-8 -5 -22 -9 -30 -9 -10 0 -8 3 5 9 27 12 43 12 25
0z m1675 0 c13 -5 14 -9 5 -9 -8 0 -24 4 -35 9 -13 5 -14 9 -5 9 8 0 24 -4 35
-9z m-2925 -55 c-7 -21 -18 -69 -25 -109 -12 -65 -13 -67 -14 -26 -1 45 10
100 31 153 16 40 22 25 8 -18z m1160 30 c-46 -18 -61 -18 -30 0 14 8 34 14 45
14 13 0 8 -5 -15 -14z m1583 -2 c-7 -2 -19 -2 -25 0 -7 3 -2 5 12 5 14 0 19
-2 13 -5z m-1643 -17 c0 -2 -18 -15 -40 -30 -31 -21 -38 -22 -33 -8 8 23 33
42 55 42 10 0 18 -2 18 -4z m32 -90 c-21 -39 -60 -99 -87 -133 l-49 -62 -12
27 c-6 15 -9 30 -7 34 2 4 -2 5 -10 2 -27 -10 -28 38 -3 81 30 51 46 65 126
109 44 24 67 32 71 24 4 -7 -9 -43 -29 -82z m1578 44 c12 -8 11 -10 -7 -10
-12 0 -25 5 -28 10 -8 13 15 13 35 0z m1410 -5 c0 -17 -30 -34 -48 -28 -10 4
-9 9 4 24 20 23 44 25 44 4z m-3156 -30 c-9 -14 -18 -25 -21 -25 -5 0 5 18 20
38 17 22 18 13 1 -13z m303 3 c15 -7 30 -13 32 -14 1 -2 -10 -20 -25 -41 l-28
-38 29 26 c54 45 71 54 37 18 -28 -31 -31 -39 -23 -61 8 -22 6 -30 -16 -49
-35 -33 -101 -131 -125 -187 -12 -26 -29 -58 -39 -71 l-19 -24 0 29 c0 16 11
64 24 107 25 79 19 111 -6 35 -14 -41 -17 -43 -57 -46 -40 -3 -42 -2 -36 20
14 52 92 193 128 232 36 39 37 39 23 10 -31 -65 -77 -187 -73 -197 2 -6 17 28
35 74 35 92 87 189 102 189 5 0 22 -5 37 -12z m1438 -6 c-3 -3 -11 0 -18 7 -9
10 -8 11 6 5 10 -3 15 -9 12 -12z m137 -16 c21 -12 54 -37 73 -54 19 -18 40
-32 47 -32 7 1 0 12 -17 26 l-30 26 45 -22 c25 -13 77 -48 115 -78 100 -80 96
-78 89 -56 -11 36 38 -28 62 -81 53 -115 65 -249 32 -360 l-12 -40 -7 86 c-6
77 -19 123 -38 139 -3 3 -23 30 -43 62 -20 31 -64 85 -97 121 -33 35 -59 66
-56 69 11 11 -127 131 -190 164 -56 29 -63 35 -35 30 19 -3 44 -16 57 -28 18
-17 23 -18 23 -6 0 9 -16 23 -35 32 -19 9 -35 19 -35 21 0 10 16 4 52 -19z
m-1217 4 c-3 -5 -12 -10 -18 -10 -7 0 -6 4 3 10 19 12 23 12 15 0z m1116 -25
c60 -31 159 -94 159 -101 0 -3 -20 6 -45 20 -25 14 -65 38 -91 52 -43 25 -63
27 -49 5 3 -6 15 -11 26 -11 10 0 19 -4 19 -8 0 -5 12 -15 28 -22 15 -7 22
-15 15 -17 -6 -2 -25 3 -41 11 -23 12 -32 12 -42 3 -10 -9 -11 -9 -6 1 5 7 -3
27 -18 46 -14 19 -22 36 -19 40 9 9 8 9 64 -19z m-1291 1 c0 -2 -32 -23 -70
-45 -39 -22 -68 -36 -65 -31 5 7 124 79 133 80 1 0 2 -2 2 -4z m-1490 -101 c0
-8 -12 -17 -27 -21 -98 -21 -151 -47 -163 -79 -14 -36 15 -119 55 -164 68 -75
99 -85 480 -157 169 -31 207 -48 270 -116 54 -58 95 -114 95 -129 0 -4 -7 -6
-16 -5 -35 3 -22 -20 28 -48 79 -45 43 -42 -79 5 -127 49 -334 109 -348 101
-12 -8 51 -33 93 -37 18 -2 43 -10 55 -18 12 -8 72 -31 132 -51 148 -51 317
-141 448 -238 59 -44 107 -82 107 -83 0 -5 -105 43 -147 66 l-33 18 46 -62
c25 -34 48 -64 50 -66 2 -2 0 13 -3 33 -5 29 -3 35 9 31 17 -7 48 -67 48 -95
0 -14 -5 -18 -17 -13 -24 8 -10 -7 19 -21 24 -12 37 -46 18 -46 -7 0 -38 23
-69 52 -277 254 -732 492 -991 518 -117 12 -115 12 -106 3 4 -4 -31 -13 -78
-20 -158 -23 -326 -106 -362 -181 -10 -20 -18 -56 -19 -80 0 -43 0 -43 -12
-15 -25 58 -26 109 -5 175 11 35 23 77 27 95 6 29 61 89 108 118 11 7 19 36
27 95 20 155 54 245 127 338 39 48 72 67 158 93 75 22 75 22 75 4z m86 6 c-10
-16 -56 -20 -56 -5 0 9 11 14 31 14 16 0 28 -4 25 -9z m2749 -11 c8 -7 15 -18
15 -25 0 -7 7 -18 15 -25 13 -11 15 -8 15 19 0 114 152 -99 175 -245 6 -39 6
-39 -25 19 -17 31 -33 57 -35 57 -3 0 4 -18 15 -40 11 -22 27 -64 34 -94 13
-50 13 -64 -4 -147 -10 -50 -21 -93 -23 -95 -2 -3 -7 30 -11 72 -12 132 -59
230 -166 347 -48 53 -50 57 -44 96 5 32 3 46 -10 60 -16 17 -15 18 9 15 14 -1
32 -8 40 -14z m-491 -16 c59 -33 152 -117 159 -145 5 -20 5 -20 -13 -4 -24 22
-31 8 -20 -41 13 -56 12 -63 -7 -29 l-17 30 -8 -59 c-10 -75 -28 -98 -28 -36
0 58 -15 84 -24 43 -8 -35 -54 -93 -99 -125 l-32 -23 29 38 c36 47 45 111 22
155 -21 41 -25 40 -19 -5 3 -24 -2 -56 -14 -86 l-19 -48 -32 52 c-34 54 -55
62 -28 11 13 -25 13 -31 2 -35 -18 -7 -72 26 -86 53 -8 15 -17 19 -31 15 -11
-4 -19 -2 -19 4 0 6 5 11 10 11 6 0 8 11 4 28 -10 39 -13 40 -35 12 -15 -19
-19 -36 -16 -70 l4 -45 -18 40 c-9 22 -18 32 -18 23 -1 -9 -6 -20 -12 -24 -12
-7 -8 55 7 106 8 25 7 25 -19 7 -25 -16 -26 -16 -22 5 5 26 -8 14 -29 -27 -18
-34 -22 -12 -6 31 12 30 4 47 -10 24 -8 -13 -10 -12 -10 2 0 29 49 78 78 78
l27 0 -25 -20 c-30 -23 -14 -27 18 -4 27 19 132 45 181 46 19 0 41 8 52 19 26
26 68 24 123 -7z m-967 -36 c-3 -49 -42 -158 -56 -158 -24 1 -34 21 -29 61 l6
44 -19 -40 c-13 -27 -19 -33 -19 -19 0 33 89 164 112 164 4 0 7 -24 5 -52z
m56 30 c-11 -13 -27 -34 -36 -48 -10 -13 -17 -19 -17 -13 0 13 58 83 68 83 3
0 -4 -10 -15 -22z m1337 12 c0 -5 -9 -10 -19 -10 -11 0 -23 5 -26 10 -4 6 5
10 19 10 14 0 26 -4 26 -10z m-1152 -57 c-30 -32 -63 -71 -73 -88 -11 -16 -23
-33 -28 -36 -5 -4 -2 -18 7 -32 21 -32 12 -77 -15 -77 -14 0 -19 7 -19 28 0
22 -2 24 -11 12 -9 -12 -10 -11 -4 5 4 11 8 26 9 33 2 19 170 212 184 212 3 0
-20 -26 -50 -57z m1037 37 c10 -11 16 -20 13 -20 -3 0 -13 9 -23 20 -10 11
-16 20 -13 20 3 0 13 -9 23 -20z m1850 0 c-3 -5 -11 -10 -16 -10 -6 0 -7 5 -4
10 3 6 11 10 16 10 6 0 7 -4 4 -10z m-755 -21 c0 -5 -8 -12 -17 -16 -31 -11
-51 -33 -46 -51 3 -13 -7 -23 -34 -37 -44 -22 -133 -46 -133 -35 0 4 45 37
100 75 55 37 103 71 106 76 6 11 24 2 24 -12z m-1029 -16 c13 -16 12 -17 -3
-4 -10 7 -18 15 -18 17 0 8 8 3 21 -13z m837 5 c-6 -18 -28 -21 -28 -4 0 9 7
16 16 16 9 0 14 -5 12 -12z m-2116 -72 c17 11 2 -47 -32 -126 -16 -37 -30 -73
-30 -79 0 -14 -17 -14 -25 -1 -4 6 -11 8 -16 5 -28 -18 5 117 52 213 l33 67 4
-43 c2 -28 7 -40 14 -36z m2988 59 c0 -2 -10 -9 -22 -15 -22 -11 -22 -10 -4 4
21 17 26 19 26 11z m-1659 -32 c13 -16 12 -17 -3 -4 -17 13 -22 21 -14 21 2 0
10 -8 17 -17z m39 -48 c14 -19 14 -19 -2 -6 -10 7 -18 18 -18 24 0 6 1 8 3 6
1 -2 9 -13 17 -24z m1450 10 c0 -3 -21 -28 -46 -55 -26 -28 -43 -50 -39 -50 4
0 29 12 55 27 93 52 69 -1 -38 -82 -77 -59 -90 -76 -29 -41 26 16 48 23 51 17
7 -11 4 -13 -72 -53 l-54 -29 -15 20 c-8 12 -25 21 -40 21 -25 0 -25 1 -10 18
10 10 17 28 17 39 0 35 159 167 208 172 6 0 12 -1 12 -4z m-3956 -105 c-9 -23
-23 16 -23 65 l0 40 15 -45 c7 -25 11 -52 8 -60z m3636 80 c0 -11 -7 -20 -15
-20 -13 0 -14 4 -5 20 6 11 13 20 15 20 3 0 5 -9 5 -20z m-1141 -78 c45 -88
69 -224 61 -347 -2 -40 -4 -32 -10 41 -8 89 -29 208 -37 200 -2 -2 3 -54 12
-116 17 -113 14 -240 -6 -240 -5 0 -9 10 -10 23 -1 15 -5 10 -14 -18 -13 -38
-13 -37 -9 40 3 47 -1 115 -10 165 l-15 85 6 -92 c7 -118 -2 -179 -27 -186
-13 -3 -20 -16 -22 -38 -2 -19 -9 22 -16 91 -6 69 -19 152 -28 185 -18 68 -13
143 13 182 l17 26 23 -59 c13 -33 21 -46 18 -30 -4 21 -1 34 14 47 19 18 21
18 31 1 9 -14 10 -13 4 8 -3 14 -13 38 -21 54 -8 15 -10 25 -4 21 6 -3 20 -23
30 -43z m825 -19 c-34 -37 -50 -41 -38 -9 6 15 48 45 65 46 4 0 -8 -17 -27
-37z m-489 -25 l7 -32 12 29 12 29 11 -30 c29 -75 36 -116 37 -206 l1 -97 46
-29 c25 -16 54 -40 65 -53 10 -13 57 -51 103 -84 46 -33 90 -70 98 -82 25 -38
27 -156 4 -302 -22 -141 -31 -171 -31 -104 0 68 -38 289 -55 322 -21 42 -27
39 -11 -6 17 -48 29 -143 19 -143 -4 0 -21 33 -38 73 l-29 72 -8 -50 c-4 -27
-11 -63 -17 -80 -9 -26 -10 -23 -5 20 13 105 19 247 12 258 -4 7 -8 -15 -8
-49 0 -69 -14 -155 -37 -231 l-16 -51 -41 14 c-22 8 -59 26 -82 39 l-42 25 34
106 c27 83 34 116 29 153 -4 33 -2 40 4 26 8 -17 10 -13 10 18 1 47 -15 41
-29 -11 -12 -45 -102 -198 -136 -232 -20 -20 -18 -14 9 27 20 29 48 78 63 109
26 54 28 64 26 181 -1 71 -8 149 -16 181 -21 78 -32 222 -18 222 6 0 14 -14
17 -32z m-1529 -142 c6 -73 5 -88 -7 -84 -7 2 -16 15 -20 29 l-7 24 -1 -25
c-1 -14 -5 -31 -10 -39 -20 -31 -36 168 -18 213 7 19 9 19 32 -5 21 -20 26
-37 31 -113z m69 -14 c3 -26 7 -54 9 -62 2 -10 -5 -15 -21 -15 -26 0 -35 23
-49 119 l-7 49 31 -22 c25 -17 32 -31 37 -69z m60 -10 c3 -10 0 -12 -10 -8
-10 4 -15 -1 -16 -17 -1 -21 -1 -21 -9 3 -4 14 -8 33 -9 43 -1 15 2 15 19 5
11 -7 22 -19 25 -26z m824 -32 c5 0 12 8 14 18 3 9 6 -19 7 -63 l1 -80 17 37
17 38 25 -43 c45 -78 54 -215 19 -300 -10 -24 -14 -26 -21 -13 -9 17 -32 12
-61 -13 -18 -15 -18 -13 -17 44 2 33 -7 119 -18 190 -11 72 -22 151 -26 177
-6 47 -5 47 14 28 11 -11 24 -20 29 -20z m1284 -32 c-4 -22 -11 -28 -32 -28
-14 0 -35 -7 -45 -15 -29 -22 -42 -18 -21 5 10 11 24 20 31 20 7 0 23 13 36
29 26 33 39 28 31 -11z m-1320 -223 c4 -45 3 -62 -3 -48 -14 34 -30 168 -29
241 l2 67 12 -95 c6 -52 15 -126 18 -165z m-28 8 c11 -56 13 -89 6 -101 -8
-14 -10 -15 -15 -2 -19 60 -45 120 -41 93 4 -17 2 -34 -4 -37 -12 -8 -41 84
-41 131 0 39 24 103 39 103 6 0 14 12 18 28 6 21 9 9 15 -52 4 -43 14 -116 23
-163z m1618 231 c15 -15 -8 -34 -42 -34 -22 0 -50 -10 -73 -25 -21 -14 -41
-24 -45 -23 -4 2 -18 -7 -30 -19 -27 -27 -39 -29 -47 -8 -4 11 3 19 22 26 15
6 42 22 61 37 19 14 50 27 70 29 19 1 39 7 45 13 11 11 29 13 39 4z m327 -18
c0 -7 -372 -231 -447 -270 -21 -10 -34 -12 -38 -6 -4 6 -16 8 -28 4 l-22 -6
22 16 c47 35 206 123 348 192 141 70 165 80 165 70z m-2525 -161 c10 -44 52
-113 78 -126 17 -10 15 -4 -11 25 -44 51 -68 116 -43 116 16 0 135 -124 174
-181 21 -30 45 -65 55 -79 13 -18 13 -22 2 -15 -8 5 -22 10 -31 10 -28 2 -145
83 -188 130 -21 23 -47 57 -56 75 -17 32 -45 116 -45 135 0 20 59 -62 65 -90z
m1582 48 c-2 -46 -5 -49 -47 -71 -26 -13 -46 -18 -48 -12 -2 5 -10 10 -17 10
-16 0 -85 58 -85 71 0 5 11 9 25 9 14 0 25 5 25 10 0 7 6 7 20 0 15 -8 21 -6
30 10 8 15 21 20 55 20 l45 0 -3 -47z m-477 -106 c-22 -73 -75 -182 -110 -227
-10 -14 3 20 30 75 27 55 60 137 72 182 13 46 24 74 26 62 2 -11 -6 -53 -18
-92z m-1208 28 c2 2 40 -29 84 -70 43 -41 71 -72 62 -69 -13 4 -18 1 -18 -12
0 -15 -5 -13 -31 12 -17 16 -51 56 -76 89 -52 68 -66 89 -42 63 9 -9 18 -15
21 -13z m1718 21 c0 -21 -69 -61 -82 -48 -7 7 2 18 28 36 44 30 54 32 54 12z
m190 10 c0 -3 -4 -8 -10 -11 -5 -3 -10 -1 -10 4 0 6 5 11 10 11 6 0 10 -2 10
-4z m-1401 -115 l-13 -46 -12 40 c-10 36 -9 42 10 63 18 21 21 21 24 7 2 -10
-2 -38 -9 -64z m1319 -14 c-2 -12 -11 -23 -20 -25 -23 -4 -34 39 -18 68 l12
22 15 -21 c8 -12 13 -31 11 -44z m-1468 -4 c67 -120 81 -147 66 -129 -15 18
-20 15 -17 -9 5 -34 -94 125 -105 169 -12 48 22 29 56 -31z m48 38 c35 -18 70
-66 57 -79 -3 -3 -5 0 -5 6 0 6 -7 9 -16 5 -10 -4 -14 -14 -11 -29 2 -13 3
-24 1 -24 -6 0 -74 118 -74 129 0 15 5 14 48 -8z m1342 -19 c0 -13 -12 -22
-22 -16 -10 6 -1 24 13 24 5 0 9 -4 9 -8z m-3626 -21 l29 -12 -33 -34 c-33
-34 -37 -35 -109 -36 -117 -2 -155 -16 -51 -19 47 -1 76 -4 65 -7 -11 -3 -25
-12 -32 -20 -10 -13 -19 -14 -45 -6 -29 8 -43 4 -126 -39 -117 -60 -163 -91
-179 -120 -9 -17 -12 -18 -13 -7 0 9 17 38 39 65 21 27 43 59 50 72 7 12 15
21 19 18 4 -2 18 2 32 10 14 7 21 13 17 14 -5 0 -17 -5 -28 -10 -26 -14 -24 2
3 26 23 20 140 90 188 112 29 14 132 9 174 -7z m3836 -70 c0 -11 6 -21 13 -24
6 -2 -21 -20 -60 -41 -40 -20 -73 -39 -73 -42 0 -19 79 -142 125 -193 60 -67
70 -92 62 -150 -4 -36 -2 -40 35 -62 100 -60 102 -63 110 -106 4 -24 19 -63
33 -88 30 -51 31 -51 -64 -31 -86 19 -96 30 -74 85 17 43 17 44 -6 62 -26 21
-62 24 -92 9 -24 -13 -24 -8 1 74 19 59 19 100 2 130 -3 5 -24 -13 -47 -39
-23 -28 -46 -45 -53 -42 -6 4 -16 33 -22 65 -6 31 -24 102 -39 157 -46 163
-64 236 -59 241 3 2 19 -11 35 -29 l30 -34 64 38 c74 44 79 46 79 20z m-423
-233 c-3 -8 -6 -5 -6 6 -1 11 2 17 5 13 3 -3 4 -12 1 -19z m-176 -74 c-16 -33
-30 -56 -31 -53 -1 13 51 121 56 116 3 -3 -8 -31 -25 -63z m947 29 c-4 -22
-22 -20 -26 1 -2 10 3 16 13 16 10 0 15 -7 13 -17z m-2095 -228 c27 -55 72
-137 98 -183 62 -105 189 -346 189 -358 0 -5 -23 32 -50 81 -28 50 -89 147
-136 217 -114 170 -196 328 -190 365 2 15 5 33 6 38 1 6 9 -6 17 -25 9 -19 39
-80 66 -135z m1287 93 c12 -66 26 -337 17 -328 -11 11 -36 172 -42 278 -7 125
6 150 25 50z m-1569 -48 c5 0 9 -10 9 -22 -1 -23 -1 -23 -15 2 -8 14 -14 32
-13 40 0 10 2 10 5 -2 2 -10 9 -18 14 -18z"/>
<path d="M2050 4345 c13 -14 26 -25 28 -25 3 0 -5 11 -18 25 -13 14 -26 25
-28 25 -3 0 5 -11 18 -25z"/>
<path d="M2768 4432 c2 -15 12 -39 23 -52 18 -25 18 -24 1 22 -21 57 -30 67
-24 30z"/>
<path d="M3162 4177 c-25 -27 -28 -37 -9 -37 7 0 18 14 24 30 14 36 13 36 -15
7z"/>
<path d="M3195 4169 c-4 -6 -5 -12 -2 -15 2 -3 7 2 10 11 7 17 1 20 -8 4z"/>
<path d="M3503 3993 c15 -2 37 -2 50 0 12 2 0 4 -28 4 -27 0 -38 -2 -22 -4z"/>
<path d="M3596 3122 c12 -11 64 -33 64 -27 0 5 -56 35 -67 35 -4 0 -3 -4 3 -8z"/>
<path d="M3710 2616 c0 -3 9 -10 20 -16 11 -6 20 -8 20 -6 0 3 -9 10 -20 16
-11 6 -20 8 -20 6z"/>
<path d="M3938 2393 c12 -2 30 -2 40 0 9 3 -1 5 -23 4 -22 0 -30 -2 -17 -4z"/>
<path d="M4000 2390 c0 -6 16 -8 43 -4 58 9 59 14 4 14 -26 0 -47 -5 -47 -10z"/>
<path d="M3540 2276 c0 -2 8 -10 18 -17 15 -13 16 -12 3 4 -13 16 -21 21 -21
13z"/>
<path d="M3877 2179 c7 -7 15 -10 18 -7 3 3 -2 9 -12 12 -14 6 -15 5 -6 -5z"/>
<path d="M3794 2089 c32 -30 64 -55 70 -57 16 -4 -82 86 -108 100 -12 6 5 -13
38 -43z"/>
<path d="M2321 3429 c0 -19 4 -43 9 -54 6 -13 7 -2 3 30 -7 59 -13 72 -12 24z"/>
<path d="M2736 3345 c4 -8 8 -15 10 -15 2 0 4 7 4 15 0 8 -4 15 -10 15 -5 0
-7 -7 -4 -15z"/>
<path d="M2754 3289 c-3 -6 -1 -16 5 -22 8 -8 11 -5 11 11 0 24 -5 28 -16 11z"/>
<path d="M920 3430 c-9 -6 -10 -10 -3 -10 6 0 15 5 18 10 8 12 4 12 -15 0z"/>
<path d="M615 3295 c-33 -30 -55 -54 -50 -55 6 0 23 11 38 25 15 14 27 23 27
20 0 -4 12 8 26 25 42 50 24 43 -41 -15z"/>
<path d="M710 3320 c-24 -15 -7 -18 20 -3 14 7 18 13 10 13 -8 0 -22 -4 -30
-10z"/>
<path d="M670 3300 c-9 -6 -10 -10 -3 -10 6 0 15 5 18 10 8 12 4 12 -15 0z"/>
<path d="M1225 3050 c-3 -6 1 -7 9 -4 18 7 21 14 7 14 -6 0 -13 -4 -16 -10z"/>
<path d="M2355 2460 c-3 -5 3 -10 15 -10 12 0 18 5 15 10 -3 6 -10 10 -15 10
-5 0 -12 -4 -15 -10z"/>
<path d="M2445 2390 c-3 -5 -1 -10 4 -10 6 0 11 5 11 10 0 6 -2 10 -4 10 -3 0
-8 -4 -11 -10z"/>
<path d="M2378 2383 c7 -3 16 -2 19 1 4 3 -2 6 -13 5 -11 0 -14 -3 -6 -6z"/>
<path d="M3190 2281 c0 -5 9 -7 20 -4 11 3 20 7 20 9 0 2 -9 4 -20 4 -11 0
-20 -4 -20 -9z"/>
<path d="M3198 2203 c6 -2 18 -2 25 0 6 3 1 5 -13 5 -14 0 -19 -2 -12 -5z"/>
<path d="M1829 2073 c-34 -38 -53 -63 -46 -63 2 0 21 20 41 45 41 50 44 61 5
18z"/>
<path d="M3635 2007 c10 -15 20 -25 23 -22 3 3 -5 16 -17 28 l-23 22 17 -28z"/>
<path d="M620 1630 c-8 -5 -33 -10 -54 -10 -24 0 -68 -14 -112 -35 -66 -31
-78 -34 -119 -26 -36 7 -49 5 -60 -6 -8 -8 -15 -15 -15 -16 0 -1 45 -1 101 1
76 3 109 0 134 -12 36 -18 81 -21 89 -7 6 9 47 3 176 -28 47 -12 92 -20 100
-20 24 1 -157 47 -237 60 -40 6 -73 15 -73 18 0 7 20 24 80 71 25 20 17 28
-10 10z"/>
<path d="M355 1500 c-14 -7 -8 -8 20 -3 22 3 42 7 44 9 9 8 -45 2 -64 -6z"/>
<path d="M308 1483 c7 -3 16 -2 19 1 4 3 -2 6 -13 5 -11 0 -14 -3 -6 -6z"/>
<path d="M3499 1943 c18 -24 38 -46 44 -50 17 -10 -28 49 -54 72 -16 14 -13 6
10 -22z"/>
<path d="M3331 1664 c0 -11 3 -14 6 -6 3 7 2 16 -1 19 -3 4 -6 -2 -5 -13z"/>
<path d="M3292 1590 c0 -14 2 -19 5 -12 2 6 2 18 0 25 -3 6 -5 1 -5 -13z"/>
<path d="M2141 1624 c0 -11 3 -14 6 -6 3 7 2 16 -1 19 -3 4 -6 -2 -5 -13z"/>
<path d="M205 1120 c-25 -11 1 -11 35 0 20 6 21 8 5 8 -11 0 -29 -3 -40 -8z"/>
<path d="M6 725 c-9 -26 -7 -32 5 -12 6 10 9 21 6 23 -2 3 -7 -2 -11 -11z"/>
<path d="M3677 673 c-11 -10 -8 -53 3 -53 5 0 0 -17 -12 -37 -27 -48 -20 -42
31 26 22 30 38 58 35 63 -6 10 -48 11 -57 1z"/>
<path d="M3626 655 c-9 -23 -8 -25 9 -25 17 0 19 9 6 28 -7 11 -10 10 -15 -3z"/>
<path d="M4220 10 c-32 -5 -12 -7 70 -8 71 0 105 3 90 8 -30 10 -98 10 -160 0z"/>
<path d="M4600 10 c8 -5 20 -10 25 -10 6 0 3 5 -5 10 -8 5 -19 10 -25 10 -5 0
-3 -5 5 -10z"/>
</g>
</svg>
